<svg xmlns="http://www.w3.org/2000/svg" viewBox="0 0 319 342" width="319" height="342">
<path d="M0 0 C29.7 0 59.4 0 90 0 C88.85330885 4.5867646 87.83005315 5.35228711 84.3125 8.3125 C82.50884014 9.83698944 80.74036383 11.40363204 79 13 C78.48874132 13.38666777 77.97748264 13.77333553 77.45073128 14.1717205 C73.75681527 17.49477457 72.63549726 20.53701599 72.27913737 25.4895308 C72.13028045 29.3954071 72.12049148 33.29537693 72.12841797 37.20361328 C72.11045167 38.96680758 72.09003259 40.72997833 72.06735229 42.49311829 C72.01444229 47.2724766 72.00028912 52.05119004 71.99645758 56.83081293 C71.9921857 59.82157074 71.97936311 62.81216584 71.96347427 65.80288315 C71.90798857 76.2505301 71.88345939 86.69771841 71.88818359 97.14550781 C71.891784 106.86137271 71.8285563 116.57523411 71.73372161 126.29059231 C71.6550578 134.64934882 71.623089 143.00745356 71.62691605 151.36657703 C71.62844049 156.35143626 71.61165213 161.33451584 71.54784775 166.31900406 C71.48939612 171.01344332 71.48951528 175.70442542 71.53294754 180.39899254 C71.53918001 182.11257593 71.52529572 183.8263813 71.48878479 185.53958702 C71.32363997 193.83210407 71.5343127 200.14419332 77.15049756 206.619995 C79.65187935 209.21840918 82.29154244 211.62104071 85 214 C87.88883781 216.66804695 87.88883781 216.66804695 90 219 C90 219.99 90 220.98 90 222 C78.52550775 222.349296 67.0523018 222.61493165 55.57355404 222.77718258 C50.24169121 222.85510572 44.9134934 222.96055895 39.58374023 223.1315918 C34.42864779 223.29596277 29.27705184 223.38453529 24.11953926 223.42315865 C22.16366099 223.4506361 20.20795027 223.5042995 18.25358391 223.58595085 C2.20774646 224.22896437 2.20774646 224.22896437 -4.51803589 218.70584106 C-8.36844627 215.08675146 -11.71732593 211.13055745 -15 207 C-16.22207989 205.61869756 -17.44834835 204.24100837 -18.6875 202.875 C-19.18894531 202.28203125 -19.69039062 201.6890625 -20.20703125 201.078125 C-22.69383583 198.19581556 -25.285813 195.41526173 -27.875 192.625 C-31.40501463 188.8175146 -34.91579909 184.99723983 -38.375 181.125 C-42.23179406 176.81777743 -46.17165897 172.59327697 -50.125 168.375 C-58.94623016 158.9576149 -58.94623016 158.9576149 -62.28479004 154.92002869 C-63.96959176 152.94721448 -63.96959176 152.94721448 -66.02770996 151.26954651 C-70.25736597 147.39052404 -72.42093897 144.21815212 -72.84958649 138.37669277 C-72.95419609 134.62967465 -72.8830572 130.89861957 -72.78125 127.15234375 C-72.76630497 125.52855737 -72.75492864 123.90473459 -72.74694824 122.28089905 C-72.71659024 118.03356045 -72.63817633 113.78845583 -72.54931641 109.54199219 C-72.46706658 105.19822402 -72.43085393 100.8540902 -72.390625 96.50976562 C-72.30515914 88.00549201 -72.16885915 79.50302489 -72 71 C-68.34076345 72.21974552 -67.63882798 73.46526174 -65.3125 76.5 C-60.47192967 82.58051938 -55.21528325 88.19064726 -49.84887695 93.80859375 C-45.9970728 97.8478394 -42.24990216 101.94952059 -38.59423828 106.16723633 C-36.43604552 108.64833174 -34.22066105 111.07480438 -32 113.5 C-29.17422616 116.59731967 -26.36781221 119.7040415 -23.625 122.875 C-19.97600746 127.07739425 -16.18491726 131.14431833 -12.40063477 135.22436523 C-9.74435286 138.09338237 -7.11625428 140.97616399 -4.5625 143.9375 C-1.30073529 147.71217121 2.09780985 151.35247339 5.5 155 C13.0914988 163.15507402 13.0914988 163.15507402 16.3125 166.75 C16.84488281 167.34296875 17.37726563 167.9359375 17.92578125 168.546875 C19 170 19 170 19 172 C19.66 172 20.32 172 21 172 C20.9161525 152.51144222 20.82103856 133.02297059 20.71247292 113.53453445 C20.66232854 104.48593083 20.61588583 95.43733635 20.578125 86.38867188 C20.54520737 78.50283086 20.50537743 70.61706042 20.45720994 62.73129725 C20.43194267 58.55497077 20.41016206 54.37869111 20.39665604 50.20230865 C20.38383775 46.27233853 20.3617859 42.34252899 20.33261681 38.41264725 C20.32353921 36.96949371 20.31785037 35.52631431 20.31578636 34.0831337 C20.3124653 32.1139187 20.29581441 30.14473958 20.2784729 28.17559814 C20.27294214 27.07313374 20.26741138 25.97066933 20.26171303 24.83479691 C19.87115306 20.60436863 18.7629814 18.69592002 15.64453125 15.8515625 C14.70996094 15.11679688 13.77539062 14.38203125 12.8125 13.625 C11.34296875 12.449375 11.34296875 12.449375 9.84375 11.25 C8.9053125 10.5075 7.966875 9.765 7 9 C4.56262513 7.06345559 2.27981001 5.12782267 0 3 C0 2.01 0 1.02 0 0 Z " fill="#C09A61" transform="translate(195,72)"/>
<path d="M0 0 C10.17918466 -0.16242288 20.35805947 -0.28668647 30.53827763 -0.3626852 C35.26581256 -0.39916748 39.99245889 -0.44862438 44.71948242 -0.52807617 C49.2842369 -0.60431754 53.84813856 -0.64602794 58.41348076 -0.6641407 C60.15226094 -0.67704259 61.89099612 -0.70223848 63.6294117 -0.7401104 C77.24725678 -1.02489253 77.24725678 -1.02489253 81.58856201 1.5136261 C83.35902218 3.25581848 84.67637175 4.90785845 86 7 C87.08667969 8.28583984 87.08667969 8.28583984 88.1953125 9.59765625 C88.83210938 10.41105469 89.46890625 11.22445312 90.125 12.0625 C93.74056233 16.56035826 97.54278866 20.80089554 101.5 25 C106.14360813 29.93149581 110.51257093 34.9883468 114.75 40.27734375 C118.16268497 44.40692956 121.81020414 48.30883485 125.44921875 52.23828125 C129.63980545 56.77540957 133.67461478 61.43704851 137.671875 66.14453125 C143.3124597 72.77651962 149.02817525 79.30363492 154.9909668 85.64916992 C156.33911456 87.08848103 157.67004613 88.54386074 159 90 C159.70413025 90.72607956 160.4082605 91.45215912 161.13372803 92.20024109 C163.48357856 95.72545878 163.53790635 98.54495684 163.45410156 102.63598633 C163.45468567 103.38774139 163.45526978 104.13949646 163.45587158 104.91403198 C163.4530953 107.38717587 163.42202675 109.85909917 163.390625 112.33203125 C163.38316094 114.0512374 163.37746879 115.77045209 163.37347412 117.4896698 C163.35823066 122.00588637 163.31896023 126.52158512 163.2746582 131.03759766 C163.23367754 135.64934281 163.21545715 140.26117196 163.1953125 144.87304688 C163.15246451 153.91559159 163.08422897 162.95775267 163 172 C159.02879992 170.18480495 156.54504892 167.60604907 153.6875 164.375 C152.95358032 163.55878174 152.95358032 163.55878174 152.20483398 162.72607422 C150.7967346 161.15635154 149.3970987 159.57951234 148 158 C147.38898438 157.31421875 146.77796875 156.6284375 146.1484375 155.921875 C143.5178502 152.94140663 140.93318522 149.92341968 138.36328125 146.890625 C132.56217474 140.05851156 126.64128435 133.38029529 120.51416016 126.83837891 C117.16150311 123.2582165 113.87735901 119.63515846 110.671875 115.921875 C108.64241927 113.58894926 106.572353 111.29488755 104.5 109 C101.84886006 106.06321535 99.21709829 103.11397458 96.625 100.125 C94.14932217 97.27682435 91.61384903 94.49184773 89.04858398 91.72412109 C84.14071838 86.42655531 79.47273105 81.02743041 74.97265625 75.375 C73.0903526 73.10878095 71.09538262 71.06730607 69 69 C68.83623998 84.24690969 68.7129227 99.49377873 68.6373148 114.74137115 C68.60127009 121.82169552 68.55215835 128.90147243 68.47192383 135.98144531 C68.39451313 142.81551794 68.35399597 149.64902175 68.3358593 156.48350525 C68.32293636 159.08944138 68.29770038 161.69534679 68.2598896 164.30104065 C68.20898685 167.95462983 68.20208037 171.60587826 68.20532227 175.25976562 C68.18015533 176.33439056 68.1549884 177.4090155 68.12905884 178.51620483 C68.19304926 185.19190225 69.44163608 188.6575878 74.19494534 193.40792084 C77.62318895 196.43167149 81.17788926 199.18156989 84.83984375 201.921875 C85.55269531 202.60765625 86.26554687 203.2934375 87 204 C87 205.32 87 206.64 87 208 C58.62 208 30.24 208 1 208 C0.67 207.01 0.34 206.02 0 205 C1.16666667 203.97916667 2.33333333 202.95833333 3.5 201.9375 C4.22445312 201.30199219 4.94890625 200.66648438 5.6953125 200.01171875 C7.20448314 198.69439183 8.71990924 197.38418913 10.2421875 196.08203125 C10.94601563 195.47746094 11.64984375 194.87289062 12.375 194.25 C13.02210937 193.69828125 13.66921875 193.1465625 14.3359375 192.578125 C16.85384565 190.19024966 17.9494614 188.5562149 18.26564884 185.07633686 C18.27289699 183.87272605 18.28014513 182.66911524 18.28761292 181.42903137 C18.29426073 180.75832648 18.30090854 180.0876216 18.30775779 179.39659232 C18.32747612 177.14431846 18.33283261 174.89224321 18.33813477 172.63989258 C18.3490282 171.02682982 18.36069973 169.41377215 18.37309265 167.80072021 C18.40362601 163.41414768 18.42062339 159.02762766 18.43330884 154.64097047 C18.44139134 151.89958729 18.45157193 149.15821923 18.46232414 146.41684532 C18.49505357 137.83756159 18.5189488 129.25831453 18.531138 120.67897683 C18.54538599 110.77967136 18.58923258 100.88107965 18.65863949 90.98201066 C18.71044933 83.32837526 18.73531352 75.67494262 18.73996013 68.02113456 C18.74335631 63.45094424 18.75818225 58.88147532 18.80124092 54.31147194 C18.84106431 50.00935681 18.84736662 45.7084643 18.82834053 41.40621948 C18.82707681 39.83084573 18.83770265 38.25540872 18.86135483 36.68021202 C19.15303509 26.72315856 19.15303509 26.72315856 14.60752869 18.16703796 C13.43308802 17.0802182 12.23278072 16.02016654 11 15 C10.15953125 14.11570312 9.3190625 13.23140625 8.453125 12.3203125 C7.72609375 11.59585938 6.9990625 10.87140625 6.25 10.125 C5.14398438 9.01511719 5.14398438 9.01511719 4.015625 7.8828125 C1.94335532 5.84479254 1.94335532 5.84479254 -1 4 C-0.67 2.68 -0.34 1.36 0 0 Z " fill="#3C5B44" transform="translate(43,46)"/>
<path d="M0 0 C0.66 0 1.32 0 2 0 C2 7.92 2 15.84 2 24 C1.01 24.33 0.02 24.66 -1 25 C-2.5625 23.8125 -2.5625 23.8125 -4 22 C-3.6875 19.3125 -3.6875 19.3125 -3 17 C-2.34 17 -1.68 17 -1 17 C0.04214691 12.38492226 0.04214691 12.38492226 -1 8 C-0.83219837 5.30434798 -0.38844355 2.67594446 0 0 Z " fill="#BA9358" transform="translate(264,145)"/>
<path d="M0 0 C0.33 0 0.66 0 1 0 C1 7.59 1 15.18 1 23 C-1 20 -1 20 -1 18 C-1.99 17.67 -2.98 17.34 -4 17 C-3.67 15.35 -3.34 13.7 -3 12 C-2.01 12.33 -1.02 12.66 0 13 C-0.185625 12.34 -0.37125 11.68 -0.5625 11 C-1.13027308 7.10669886 -0.59281707 3.88624521 0 0 Z " fill="#BB955A" transform="translate(265,240)"/>
<path d="M0 0 C0 6.27 0 12.54 0 19 C-3 15 -3 15 -3 13 C-2.34 13 -1.68 13 -1 13 C-1.33 11.02 -1.66 9.04 -2 7 C-2.99 7 -3.98 7 -5 7 C-4.67 5.02 -4.34 3.04 -4 1 C-1 0 -1 0 0 0 Z " fill="#B99257" transform="translate(266,125)"/>
<path d="M0 0 C2.475 0.99 2.475 0.99 5 2 C4.8125 3.875 4.8125 3.875 4 6 C1.4375 7.25 1.4375 7.25 -1 8 C-0.67 5.36 -0.34 2.72 0 0 Z " fill="#C4A068" transform="translate(217,234)"/>
<path d="M0 0 C1.98 0.99 1.98 0.99 4 2 C3.01 2.66 2.02 3.32 1 4 C0.67 2.68 0.34 1.36 0 0 Z M-7 3 C-4.69 3 -2.38 3 0 3 C0 3.33 0 3.66 0 4 C-2.31 4 -4.62 4 -7 4 C-7 3.67 -7 3.34 -7 3 Z " fill="#B99359" transform="translate(260,93)"/>
</svg>
