<?xml version="1.0" encoding="UTF-8"?>
<svg xmlns="http://www.w3.org/2000/svg" viewBox="0 0 100 100" role="img" aria-label="Notch">
  <title>Notch</title>
  <rect width="100" height="100" fill="#F6F1E7"/>
  <path fill="#3D6B4F" d="M 10.88 11.19L 10.88 23.23L 15.54 23.71L 16.49 25.13L 16.49 74.62L 14.58 76.42L 10.88 76.29L 10.88 88.81L 40.82 88.81L 40.70 76.42L 36.88 76.42L 34.85 74.39L 34.85 41.59L 45.83 57.10L 62.40 43.39L 40.82 11.19Z"/>
  <path fill="#C4A574" d="M 59.42 11.31L 59.30 23.47L 63.35 23.58L 64.90 25.73L 64.90 44.94L 45.35 60.91L 37.95 50.90L 62.88 88.81L 89.12 88.81L 89.12 76.17L 85.77 76.42L 83.62 74.39L 83.62 25.26L 85.29 23.47L 89.12 23.47L 88.99 11.31Z"/>
</svg>
